<svg width="40" height="40" viewBox="0 0 40 40" fill="none" xmlns="http://www.w3.org/2000/svg">
<rect x="2" y="2" width="34.0312" height="28" fill="#183E4E"/>
<path d="M6.21875 8.18277C6.9954 8.18277 7.625 7.57423 7.625 6.82355C7.625 6.07287 6.9954 5.46432 6.21875 5.46432C5.4421 5.46432 4.8125 6.07287 4.8125 6.82355C4.8125 7.57423 5.4421 8.18277 6.21875 8.18277Z" fill="#F1452C"/>
<path d="M9.875 8.18277C10.6517 8.18277 11.2812 7.57423 11.2812 6.82355C11.2812 6.07287 10.6517 5.46432 9.875 5.46432C9.09835 5.46432 8.46875 6.07287 8.46875 6.82355C8.46875 7.57423 9.09835 8.18277 9.875 8.18277Z" fill="#FFDA44"/>
<path d="M13.5312 8.18277C14.3079 8.18277 14.9375 7.57423 14.9375 6.82355C14.9375 6.07287 14.3079 5.46432 13.5312 5.46432C12.7546 5.46432 12.125 6.07287 12.125 6.82355C12.125 7.57423 12.7546 8.18277 13.5312 8.18277Z" fill="#10AC0D"/>
<path fill-rule="evenodd" clip-rule="evenodd" d="M26.9231 13.545V25.5862H16.358C15.9666 23.5847 15.8488 21.6737 15.8462 20.1145C15.8424 17.8769 17.6204 16.1928 19.8071 15.718C20.3988 15.5895 20.9849 15.4436 21.5007 15.2822C22.4458 14.9864 23.6274 14.4908 24.6461 14.0326C25.369 13.7076 26.146 13.545 26.9231 13.545Z" fill="#A2DECF"/>
<path fill-rule="evenodd" clip-rule="evenodd" d="M26.9231 38.0014C26.4454 38.0014 25.9677 37.9114 25.5183 37.7315C19.6575 35.3852 17.268 30.241 16.358 25.5862H26.9231V38.0014Z" fill="#4ADB89"/>
<path fill-rule="evenodd" clip-rule="evenodd" d="M37.4882 25.5862H26.923V13.545C27.7001 13.545 28.4771 13.7076 29.2 14.0327C30.2187 14.4908 31.4003 14.9864 32.3454 15.2822C32.8612 15.4436 33.4474 15.5895 34.0391 15.718C36.2257 16.1928 38.0037 17.8769 37.9999 20.1145C37.9973 21.6737 37.8795 23.5847 37.4882 25.5862Z" fill="#4ADB89"/>
<path fill-rule="evenodd" clip-rule="evenodd" d="M37.4882 25.5862C36.5781 30.241 34.1886 35.3852 28.3279 37.7315C27.8785 37.9114 27.4007 38.0014 26.923 38.0014V25.5862H37.4882Z" fill="#A2DECF"/>
<path d="M37.4375 25.6759C37.4375 25.6759 32.7155 31.2722 26.8906 31.2722C21.0657 31.2722 16.3438 25.6759 16.3438 25.6759C16.3438 25.6759 21.0657 20.0797 26.8906 20.0797C32.7155 20.0797 37.4375 25.6759 37.4375 25.6759Z" fill="#4ADB89"/>
<ellipse cx="26.8906" cy="25.6759" rx="3.95508" ry="3.59761" fill="#469A77"/>
<path d="M29.7471 24.4767C30.3538 24.4767 30.8457 24.0293 30.8457 23.4774C30.8457 22.9255 30.3538 22.4781 29.7471 22.4781C29.1403 22.4781 28.6484 22.9255 28.6484 23.4774C28.6484 24.0293 29.1403 24.4767 29.7471 24.4767Z" fill="white"/>
<path d="M28.4287 25.2762C28.7928 25.2762 29.0879 25.0077 29.0879 24.6766C29.0879 24.3454 28.7928 24.077 28.4287 24.077C28.0647 24.077 27.7695 24.3454 27.7695 24.6766C27.7695 25.0077 28.0647 25.2762 28.4287 25.2762Z" fill="white"/>
</svg>
