<svg width="16" height="16" viewBox="0 0 16 16" fill="none" xmlns="http://www.w3.org/2000/svg">
<mask id="mask0_3_130" style="mask-type:luminance" maskUnits="userSpaceOnUse" x="0" y="0" width="16" height="16">
<path fill-rule="evenodd" clip-rule="evenodd" d="M0 0H16V16H0V0V0Z" fill="white"/>
</mask>
<g mask="url(#mask0_3_130)">
<path fill-rule="evenodd" clip-rule="evenodd" d="M13.1818 3.56911C11.4149 3.56916 9.7259 2.8266 8.42606 1.47822L8.0253 1.06251V4.62076C8.86771 4.62076 9.55303 5.30572 9.55303 6.14769C9.55303 6.98966 8.86771 7.67462 8.0253 7.67462V8.17995C9.40324 8.17995 10.5243 9.30038 10.5243 10.6776V11.2338H8.0253V14.9603L8.18464 14.9127C8.25059 14.8931 9.81811 14.4121 11.422 12.8175C12.3559 11.889 13.1141 10.7703 13.6755 9.49262C14.3702 7.91139 14.7629 6.08236 14.8425 4.0563L14.8693 3.37437L14.1956 3.48567C13.8606 3.54105 13.5195 3.56911 13.1818 3.56911Z" fill="#D44632"/>
<path fill-rule="evenodd" clip-rule="evenodd" d="M5.52645 10.6776C5.52645 9.30039 6.64747 8.17997 8.02541 8.17997V7.67464C7.183 7.67464 6.49767 6.98968 6.49767 6.14771C6.49767 5.30574 7.183 4.62078 8.02541 4.62078V1.0625L7.62464 1.47824C6.3249 2.82651 4.63593 3.56905 2.86886 3.5691C2.53134 3.5691 2.19024 3.54104 1.85506 3.48566L1.1814 3.37439L1.20819 4.05632C1.28781 6.08238 1.68045 7.91141 2.37521 9.49263C2.93662 10.7704 3.69479 11.889 4.62872 12.8175C6.23257 14.4121 7.80009 14.8931 7.86604 14.9128L8.02538 14.9603V11.2339H5.52645V10.6776Z" fill="#D44632"/>
<path fill-rule="evenodd" clip-rule="evenodd" d="M5.52637 11.2339H10.5243V10.6776C10.5243 9.30038 9.40324 8.17995 8.0253 8.17995C6.64735 8.17995 5.52637 9.30038 5.52637 10.6776V11.2339Z" fill="#FFE477"/>
<path fill-rule="evenodd" clip-rule="evenodd" d="M8.02545 7.67463V4.62077C7.18304 4.62077 6.49771 5.30573 6.49771 6.1477C6.49771 6.98967 7.18304 7.67463 8.02545 7.67463Z" fill="#FFE477"/>
<path fill-rule="evenodd" clip-rule="evenodd" d="M8.0253 4.62077V7.67466C8.86771 7.67466 9.55303 6.98967 9.55303 6.1477C9.55303 5.30573 8.86771 4.62077 8.0253 4.62077Z" fill="#FFDA44"/>
<rect x="5.46951" y="3.78812" width="2.53227" height="8.42719" fill="#D44632"/>
<rect x="7.29599" y="3.41177" width="3.328" height="8.35294" fill="#D44632"/>
<path d="M11.6478 8.66454C11.6411 8.86079 11.4348 9.0147 11.1907 9.0147H10.416V9.19485C10.416 9.44102 10.3476 9.67431 10.2256 9.88329L11.0688 10.5614C11.2437 10.7021 11.2437 10.9302 11.0688 11.0709C10.8938 11.2117 10.6101 11.2116 10.4352 11.0709L9.66888 10.4547C9.32238 10.6807 8.88089 10.8162 8.39997 10.8162V8.06893C8.39997 7.99432 8.32475 7.93382 8.23197 7.93382H7.89597C7.8032 7.93382 7.72797 7.99432 7.72797 8.06893V10.8162C7.24706 10.8162 6.80557 10.6807 6.45907 10.4547L5.69276 11.0709C5.51779 11.2117 5.23414 11.2116 5.05918 11.0709C4.88424 10.9302 4.88424 10.7021 5.05918 10.5614L5.90237 9.88329C5.78032 9.67431 5.71197 9.44102 5.71197 9.19485V9.0147H4.9373C4.69319 9.0147 4.48685 8.86079 4.48015 8.66454C4.4732 8.46093 4.67636 8.29412 4.92797 8.29412H5.71197V7.6327L5.05918 7.1077C4.88424 6.967 4.88424 6.73887 5.05918 6.59817C5.23415 6.45746 5.51779 6.45746 5.69276 6.59817L6.45754 7.21324H9.67039L10.4352 6.59818C10.6101 6.45747 10.8938 6.45747 11.0688 6.59818C11.2437 6.73889 11.2437 6.96701 11.0688 7.10771L10.416 7.6327V8.29412H11.2C11.4516 8.29412 11.6548 8.46093 11.6478 8.66454ZM8.07797 5.41177C7.21199 5.41177 6.50997 5.97635 6.50997 6.67279H9.64597C9.64597 5.97635 8.94396 5.41177 8.07797 5.41177Z" fill="white"/>
</g>
</svg>
