<svg width="125" height="136" viewBox="0 0 125 136" fill="none" xmlns="http://www.w3.org/2000/svg">
<mask id="mask0_3_130" style="mask-type:luminance" maskUnits="userSpaceOnUse" x="0" y="0" width="125" height="136">
<path fill-rule="evenodd" clip-rule="evenodd" d="M0 0H125V136H0V0Z" fill="white"/>
</mask>
<g mask="url(#mask0_3_130)">
<path fill-rule="evenodd" clip-rule="evenodd" d="M102.983 30.3373C89.1788 30.3378 75.9838 24.026 65.8288 12.5648L62.6978 9.03123V39.2763C69.2792 39.2763 74.6333 45.0986 74.6333 52.2553C74.6333 59.412 69.2792 65.2342 62.6978 65.2342V69.5295C73.463 69.5295 82.2209 79.0531 82.2209 90.7595V95.4876H62.6978V127.163L63.9427 126.758C64.4579 126.591 76.7042 122.503 89.2342 108.949C96.5306 101.056 102.454 91.5479 106.84 80.6872C112.268 67.2467 115.335 51.7 115.957 34.4785L116.166 28.682L110.903 29.6281C108.286 30.0988 105.621 30.3373 102.983 30.3373Z" fill="#D44632"/>
<path fill-rule="evenodd" clip-rule="evenodd" d="M43.1755 90.7597C43.1755 79.0533 51.9334 69.5297 62.6985 69.5297V65.2344C56.1172 65.2344 50.7631 59.4122 50.7631 52.2555C50.7631 45.0988 56.1172 39.2766 62.6985 39.2766V9.03123L59.5676 12.565C49.4133 24.0253 36.2183 30.3369 22.413 30.3373C19.7762 30.3373 17.1113 30.0988 14.4927 29.6281L9.22971 28.6823L9.43906 34.4787C10.061 51.7002 13.1285 67.247 18.5563 80.6874C22.9424 91.5481 28.8656 101.057 36.162 108.949C48.692 122.503 60.9383 126.591 61.4535 126.758L62.6983 127.163V95.4878H43.1755V90.7597Z" fill="#D44632"/>
<path fill-rule="evenodd" clip-rule="evenodd" d="M43.1749 95.4877H82.2209V90.7596C82.2209 79.0532 73.4629 69.5296 62.6978 69.5296C51.9326 69.5296 43.1749 79.0532 43.1749 90.7596V95.4877Z" fill="#FFE477"/>
<path fill-rule="evenodd" clip-rule="evenodd" d="M62.699 65.2344V39.2765C56.1176 39.2765 50.7635 45.0988 50.7635 52.2555C50.7635 59.4122 56.1176 65.2344 62.699 65.2344Z" fill="#FFE477"/>
<path fill-rule="evenodd" clip-rule="evenodd" d="M62.6978 39.2765V65.2347C69.2792 65.2347 74.6333 59.4122 74.6333 52.2555C74.6333 45.0988 69.2792 39.2765 62.6978 39.2765Z" fill="#FFDA44"/>
<rect x="42.7307" y="32.199" width="19.7834" height="71.6311" fill="#D44632"/>
<rect x="57" y="29" width="26" height="71" fill="#D44632"/>
<path d="M90.9986 73.6486C90.9464 75.3167 89.3343 76.625 87.4272 76.625H81.375V78.1562C81.375 80.2487 80.841 82.2316 79.8875 84.008L86.4749 89.772C87.8416 90.968 87.8416 92.907 86.4749 94.103C85.1079 95.299 82.8919 95.2989 81.525 94.103L75.5383 88.8646C72.8312 90.7857 69.3821 91.9375 65.6249 91.9375V68.5859C65.6249 67.9517 65.0373 67.4375 64.3124 67.4375H61.6874C60.9626 67.4375 60.3749 67.9517 60.3749 68.5859V91.9375C56.6178 91.9375 53.1687 90.7857 50.4616 88.8646L44.4749 94.103C43.1079 95.299 40.8919 95.2989 39.525 94.103C38.1582 92.907 38.1582 90.968 39.525 89.772L46.1124 84.008C45.1589 82.2316 44.6249 80.2487 44.6249 78.1562V76.625H38.5728C36.6657 76.625 35.0536 75.3167 35.0014 73.6486C34.947 71.9179 36.5342 70.5 38.4999 70.5H44.6249V64.8779L39.525 60.4155C38.1582 59.2195 38.1582 57.2804 39.525 56.0844C40.892 54.8884 43.1079 54.8884 44.4749 56.0844L50.4497 61.3125H75.5501L81.5249 56.0845C82.8919 54.8885 85.1078 54.8885 86.4748 56.0845C87.8415 57.2805 87.8415 59.2196 86.4748 60.4156L81.375 64.8779V70.5H87.5C89.4656 70.5 91.0529 71.9179 90.9986 73.6486ZM63.1093 46C56.3438 46 50.8593 50.7989 50.8593 56.7187H75.3593C75.3593 50.7989 69.8748 46 63.1093 46Z" fill="white"/>
</g>
</svg>
