<svg width="12" height="12" viewBox="0 0 12 12" fill="none" xmlns="http://www.w3.org/2000/svg">
<mask id="mask0_3_130" style="mask-type:luminance" maskUnits="userSpaceOnUse" x="0" y="0" width="12" height="12">
<path fill-rule="evenodd" clip-rule="evenodd" d="M0 0H12V12H0V0V0Z" fill="white"/>
</mask>
<g mask="url(#mask0_3_130)">
<path fill-rule="evenodd" clip-rule="evenodd" d="M9.88635 2.67683C8.56115 2.67688 7.29443 2.11995 6.31956 1.10867L6.01898 0.796883V3.46557C6.65079 3.46557 7.16478 3.97929 7.16478 4.61077C7.16478 5.24224 6.65079 5.75597 6.01898 5.75597V6.13496C7.05244 6.13496 7.8932 6.97528 7.8932 8.0082V8.42539H6.01898V11.2202L6.13849 11.1846C6.18795 11.1698 7.36359 10.8091 8.56647 9.61314C9.26692 8.91675 9.83558 8.07776 10.2566 7.11946C10.7777 5.93355 11.0722 4.56177 11.1319 3.04223L11.152 2.53078L10.6467 2.61426C10.3954 2.65579 10.1396 2.67683 9.88635 2.67683Z" fill="#D44632"/>
<path fill-rule="evenodd" clip-rule="evenodd" d="M4.14484 8.00821C4.14484 6.9753 4.9856 6.13498 6.01906 6.13498V5.75598C5.38725 5.75598 4.87326 5.24226 4.87326 4.61078C4.87326 3.97931 5.38725 3.46558 6.01906 3.46558V0.796875L5.71848 1.10868C4.74367 2.11988 3.47695 2.67678 2.15164 2.67683C1.89851 2.67683 1.64268 2.65578 1.3913 2.61425L0.886047 2.53079L0.906145 3.04224C0.965855 4.56178 1.26034 5.93356 1.7814 7.11948C2.20246 8.07778 2.77109 8.91678 3.47154 9.61315C4.67442 10.8091 5.85007 11.1698 5.89953 11.1846L6.01903 11.2203V8.4254H4.14484V8.00821Z" fill="#D44632"/>
<path fill-rule="evenodd" clip-rule="evenodd" d="M4.14478 8.42539H7.89319V8.0082C7.89319 6.97528 7.05243 6.13496 6.01897 6.13496C4.98552 6.13496 4.14478 6.97528 4.14478 8.0082V8.42539Z" fill="#FFE477"/>
<path fill-rule="evenodd" clip-rule="evenodd" d="M6.01909 5.75598V3.46558C5.38729 3.46558 4.87329 3.9793 4.87329 4.61078C4.87329 5.24225 5.38729 5.75598 6.01909 5.75598Z" fill="#FFE477"/>
<path fill-rule="evenodd" clip-rule="evenodd" d="M6.01898 3.46558V5.756C6.65079 5.756 7.16478 5.24225 7.16478 4.61078C7.16478 3.9793 6.65079 3.46558 6.01898 3.46558Z" fill="#FFDA44"/>
<rect x="4.10214" y="2.84109" width="1.8992" height="6.32039" fill="#D44632"/>
<rect x="5.47198" y="2.55882" width="2.496" height="6.26471" fill="#D44632"/>
<path d="M8.73586 6.49841C8.73084 6.64559 8.57608 6.76103 8.393 6.76103H7.81198V6.89614C7.81198 7.08076 7.76072 7.25573 7.66918 7.41247L8.30157 7.92106C8.43278 8.02659 8.43278 8.19768 8.30157 8.30321C8.17035 8.40874 7.95761 8.40873 7.82639 8.30321L7.25166 7.841C6.99178 8.0105 6.66067 8.11213 6.29998 8.11213V6.0517C6.29998 5.99574 6.24356 5.95037 6.17398 5.95037H5.92198C5.8524 5.95037 5.79598 5.99574 5.79598 6.0517V8.11213C5.43529 8.11213 5.10418 8.0105 4.8443 7.841L4.26957 8.30321C4.13834 8.40874 3.9256 8.40873 3.79439 8.30321C3.66318 8.19768 3.66318 8.02659 3.79439 7.92106L4.42678 7.41247C4.33524 7.25573 4.28398 7.08076 4.28398 6.89614V6.76103H3.70297C3.51989 6.76103 3.36513 6.64559 3.36012 6.49841C3.3549 6.3457 3.50727 6.22059 3.69598 6.22059H4.28398V5.72452L3.79439 5.33078C3.66318 5.22525 3.66318 5.05415 3.79439 4.94862C3.92561 4.8431 4.13834 4.8431 4.26957 4.94862L4.84316 5.40992H7.25279L7.82638 4.94863C7.95761 4.8431 8.17034 4.8431 8.30156 4.94863C8.43277 5.05416 8.43277 5.22525 8.30156 5.33078L7.81198 5.72452V6.22059H8.39998C8.58869 6.22059 8.74106 6.3457 8.73586 6.49841ZM6.05848 4.05882C5.40899 4.05882 4.88248 4.48226 4.88248 5.00459H7.23448C7.23448 4.48226 6.70797 4.05882 6.05848 4.05882Z" fill="white"/>
</g>
</svg>
