<svg width="16" height="16" viewBox="0 0 16 16" fill="none" xmlns="http://www.w3.org/2000/svg">
<mask id="mask0_4_4" style="mask-type:luminance" maskUnits="userSpaceOnUse" x="0" y="0" width="16" height="16">
<path fill-rule="evenodd" clip-rule="evenodd" d="M0 0H16V16H0V0V0Z" fill="white"/>
</mask>
<g mask="url(#mask0_4_4)">
<path fill-rule="evenodd" clip-rule="evenodd" d="M13.1818 3.5691C11.4149 3.56916 9.7259 2.82659 8.42606 1.47821L8.0253 1.0625V4.62075C8.86771 4.62075 9.55303 5.30571 9.55303 6.14768C9.55303 6.98965 8.86771 7.67462 8.0253 7.67462V8.17994C9.40324 8.17994 10.5243 9.30037 10.5243 10.6776V11.2338H8.0253V14.9603L8.18464 14.9127C8.25059 14.893 9.81811 14.4121 11.422 12.8175C12.3559 11.889 13.1141 10.7703 13.6755 9.49261C14.3702 7.91138 14.7629 6.08235 14.8425 4.05629L14.8693 3.37436L14.1956 3.48566C13.8606 3.54104 13.5195 3.5691 13.1818 3.5691Z" fill="#3D89B5"/>
<path fill-rule="evenodd" clip-rule="evenodd" d="M5.52645 10.6776C5.52645 9.30039 6.64747 8.17997 8.02541 8.17997V7.67464C7.183 7.67464 6.49767 6.98968 6.49767 6.14771C6.49767 5.30574 7.183 4.62078 8.02541 4.62078V1.0625L7.62464 1.47824C6.3249 2.82651 4.63593 3.56905 2.86886 3.5691C2.53134 3.5691 2.19024 3.54104 1.85506 3.48566L1.1814 3.37439L1.20819 4.05632C1.28781 6.08238 1.68045 7.91141 2.37521 9.49263C2.93662 10.7704 3.69479 11.889 4.62872 12.8175C6.23257 14.4121 7.80009 14.8931 7.86604 14.9128L8.02538 14.9603V11.2339H5.52645V10.6776Z" fill="#3D89B5"/>
<path fill-rule="evenodd" clip-rule="evenodd" d="M5.52637 11.2339H10.5243V10.6776C10.5243 9.30039 9.40324 8.17996 8.0253 8.17996C6.64735 8.17996 5.52637 9.30039 5.52637 10.6776V11.2339Z" fill="#FFE477"/>
<path fill-rule="evenodd" clip-rule="evenodd" d="M8.02545 7.67462V4.62076C7.18304 4.62076 6.49771 5.30572 6.49771 6.14769C6.49771 6.98966 7.18304 7.67462 8.02545 7.67462Z" fill="#FFE477"/>
<path fill-rule="evenodd" clip-rule="evenodd" d="M8.0253 4.62076V7.67465C8.86771 7.67465 9.55303 6.98966 9.55303 6.14769C9.55303 5.30572 8.86771 4.62076 8.0253 4.62076Z" fill="#FFDA44"/>
<rect x="5.46951" y="3.78812" width="2.53227" height="8.42719" fill="#3D89B5"/>
<rect x="7.04001" y="3.76468" width="3.584" height="8.47059" fill="#3D89B5"/>
<path d="M8.06401 5.17648C6.29683 5.17648 4.86401 6.49388 4.86401 8.11766C4.86401 9.74239 6.29683 11.0588 8.06401 11.0588C9.8312 11.0588 11.264 9.74239 11.264 8.11766C11.264 6.49388 9.8312 5.17648 8.06401 5.17648ZM8.06401 6.48104C8.36332 6.48104 8.60595 6.70404 8.60595 6.97914C8.60595 7.25423 8.36332 7.47724 8.06401 7.47724C7.76471 7.47724 7.52208 7.25423 7.52208 6.97914C7.52208 6.70404 7.76471 6.48104 8.06401 6.48104ZM8.78659 9.49337C8.78659 9.57196 8.71727 9.63569 8.63176 9.63569H7.49627C7.41076 9.63569 7.34143 9.57196 7.34143 9.49337V9.20874C7.34143 9.13015 7.41076 9.06643 7.49627 9.06643H7.65111V8.30741H7.49627C7.41076 8.30741 7.34143 8.24369 7.34143 8.1651V7.88047C7.34143 7.80187 7.41076 7.73815 7.49627 7.73815H8.32208C8.40759 7.73815 8.47692 7.80187 8.47692 7.88047V9.06643H8.63176C8.71727 9.06643 8.78659 9.13015 8.78659 9.20874V9.49337Z" fill="white"/>
</g>
</svg>
