<svg width="125" height="136" viewBox="0 0 125 136" fill="none" xmlns="http://www.w3.org/2000/svg">
<mask id="mask0_4_4" style="mask-type:luminance" maskUnits="userSpaceOnUse" x="0" y="0" width="125" height="136">
<path fill-rule="evenodd" clip-rule="evenodd" d="M0 0H125V136H0V0Z" fill="white"/>
</mask>
<g mask="url(#mask0_4_4)">
<path fill-rule="evenodd" clip-rule="evenodd" d="M102.983 30.3373C89.1788 30.3378 75.9838 24.026 65.8288 12.5648L62.6978 9.03122V39.2763C69.2792 39.2763 74.6333 45.0985 74.6333 52.2553C74.6333 59.412 69.2792 65.2342 62.6978 65.2342V69.5295C73.463 69.5295 82.2209 79.0531 82.2209 90.7595V95.4876H62.6978V127.163L63.9427 126.758C64.4579 126.591 76.7042 122.503 89.2342 108.949C96.5306 101.056 102.454 91.5479 106.84 80.6871C112.268 67.2467 115.335 51.6999 115.957 34.4785L116.166 28.682L110.903 29.6281C108.286 30.0988 105.621 30.3373 102.983 30.3373Z" fill="#3D89B5"/>
<path fill-rule="evenodd" clip-rule="evenodd" d="M43.1755 90.7597C43.1755 79.0533 51.9334 69.5297 62.6985 69.5297V65.2344C56.1172 65.2344 50.7631 59.4122 50.7631 52.2555C50.7631 45.0988 56.1172 39.2766 62.6985 39.2766V9.03122L59.5676 12.565C49.4133 24.0253 36.2183 30.3369 22.413 30.3373C19.7762 30.3373 17.1113 30.0988 14.4927 29.6281L9.22971 28.6823L9.43906 34.4787C10.061 51.7002 13.1285 67.247 18.5563 80.6874C22.9424 91.5481 28.8656 101.057 36.162 108.949C48.692 122.503 60.9383 126.591 61.4535 126.758L62.6983 127.163V95.4878H43.1755V90.7597Z" fill="#3D89B5"/>
<path fill-rule="evenodd" clip-rule="evenodd" d="M43.1749 95.4877H82.2209V90.7596C82.2209 79.0532 73.4629 69.5296 62.6978 69.5296C51.9326 69.5296 43.1749 79.0532 43.1749 90.7596V95.4877Z" fill="#FFE477"/>
<path fill-rule="evenodd" clip-rule="evenodd" d="M62.699 65.2344V39.2766C56.1176 39.2766 50.7635 45.0988 50.7635 52.2555C50.7635 59.4122 56.1176 65.2344 62.699 65.2344Z" fill="#FFE477"/>
<path fill-rule="evenodd" clip-rule="evenodd" d="M62.6978 39.2766V65.2347C69.2792 65.2347 74.6333 59.4122 74.6333 52.2555C74.6333 45.0988 69.2792 39.2766 62.6978 39.2766Z" fill="#FFDA44"/>
<rect x="42.7307" y="32.199" width="19.7834" height="71.6311" fill="#3D89B5"/>
<rect x="55" y="32" width="28" height="72" fill="#3D89B5"/>
<path d="M63 44C49.1939 44 38 55.1979 38 69C38 82.8102 49.1939 94 63 94C76.8061 94 88 82.8102 88 69C88 55.1979 76.8061 44 63 44ZM63 55.0887C65.3383 55.0887 67.2339 56.9843 67.2339 59.3226C67.2339 61.6609 65.3383 63.5565 63 63.5565C60.6617 63.5565 58.7661 61.6609 58.7661 59.3226C58.7661 56.9843 60.6617 55.0887 63 55.0887ZM68.6452 80.6935C68.6452 81.3616 68.1035 81.9032 67.4355 81.9032H58.5645C57.8965 81.9032 57.3548 81.3616 57.3548 80.6935V78.2742C57.3548 77.6061 57.8965 77.0645 58.5645 77.0645H59.7742V70.6129H58.5645C57.8965 70.6129 57.3548 70.0713 57.3548 69.4032V66.9839C57.3548 66.3158 57.8965 65.7742 58.5645 65.7742H65.0161C65.6842 65.7742 66.2258 66.3158 66.2258 66.9839V77.0645H67.4355C68.1035 77.0645 68.6452 77.6061 68.6452 78.2742V80.6935Z" fill="white"/>
</g>
</svg>
