<svg width="12" height="12" viewBox="0 0 12 12" fill="none" xmlns="http://www.w3.org/2000/svg">
<mask id="mask0_4_4" style="mask-type:luminance" maskUnits="userSpaceOnUse" x="0" y="0" width="12" height="12">
<path fill-rule="evenodd" clip-rule="evenodd" d="M0 0H12V12H0V0V0Z" fill="white"/>
</mask>
<g mask="url(#mask0_4_4)">
<path fill-rule="evenodd" clip-rule="evenodd" d="M9.88635 2.67683C8.56115 2.67687 7.29443 2.11994 6.31956 1.10866L6.01898 0.796875V3.46556C6.65079 3.46556 7.16478 3.97929 7.16478 4.61076C7.16478 5.24224 6.65079 5.75596 6.01898 5.75596V6.13496C7.05244 6.13496 7.8932 6.97528 7.8932 8.00819V8.42538H6.01898V11.2202L6.13849 11.1846C6.18795 11.1698 7.36359 10.8091 8.56647 9.61313C9.26692 8.91674 9.83558 8.07776 10.2566 7.11946C10.7777 5.93354 11.0722 4.56176 11.1319 3.04222L11.152 2.53077L10.6467 2.61425C10.3954 2.65578 10.1396 2.67683 9.88635 2.67683Z" fill="#3D89B5"/>
<path fill-rule="evenodd" clip-rule="evenodd" d="M4.14484 8.00821C4.14484 6.9753 4.9856 6.13498 6.01906 6.13498V5.75598C5.38725 5.75598 4.87326 5.24226 4.87326 4.61078C4.87326 3.97931 5.38725 3.46558 6.01906 3.46558V0.796875L5.71848 1.10868C4.74367 2.11988 3.47695 2.67678 2.15164 2.67683C1.89851 2.67683 1.64268 2.65578 1.3913 2.61425L0.886047 2.53079L0.906145 3.04224C0.965855 4.56178 1.26034 5.93356 1.7814 7.11948C2.20246 8.07778 2.77109 8.91678 3.47154 9.61315C4.67442 10.8091 5.85007 11.1698 5.89953 11.1846L6.01903 11.2203V8.4254H4.14484V8.00821Z" fill="#3D89B5"/>
<path fill-rule="evenodd" clip-rule="evenodd" d="M4.14478 8.4254H7.89319V8.00821C7.89319 6.9753 7.05243 6.13498 6.01897 6.13498C4.98552 6.13498 4.14478 6.9753 4.14478 8.00821V8.4254Z" fill="#FFE477"/>
<path fill-rule="evenodd" clip-rule="evenodd" d="M6.01909 5.75598V3.46558C5.38729 3.46558 4.87329 3.9793 4.87329 4.61078C4.87329 5.24225 5.38729 5.75598 6.01909 5.75598Z" fill="#FFE477"/>
<path fill-rule="evenodd" clip-rule="evenodd" d="M6.01898 3.46558V5.756C6.65079 5.756 7.16478 5.24225 7.16478 4.61078C7.16478 3.9793 6.65079 3.46558 6.01898 3.46558Z" fill="#FFDA44"/>
<rect x="4.10214" y="2.84109" width="1.8992" height="6.32039" fill="#3D89B5"/>
<rect x="5.28" y="2.82352" width="2.688" height="6.35294" fill="#3D89B5"/>
<path d="M6.04801 3.88235C4.72262 3.88235 3.64801 4.8704 3.64801 6.08824C3.64801 7.30678 4.72262 8.29412 6.04801 8.29412C7.3734 8.29412 8.44801 7.30678 8.44801 6.08824C8.44801 4.8704 7.3734 3.88235 6.04801 3.88235ZM6.04801 4.86077C6.27249 4.86077 6.45446 5.02803 6.45446 5.23435C6.45446 5.44067 6.27249 5.60792 6.04801 5.60792C5.82353 5.60792 5.64156 5.44067 5.64156 5.23435C5.64156 5.02803 5.82353 4.86077 6.04801 4.86077ZM6.58995 7.12002C6.58995 7.17897 6.53795 7.22676 6.47382 7.22676H5.6222C5.55807 7.22676 5.50607 7.17897 5.50607 7.12002V6.90655C5.50607 6.8476 5.55807 6.79981 5.6222 6.79981H5.73833V6.23055H5.6222C5.55807 6.23055 5.50607 6.18276 5.50607 6.12382V5.91034C5.50607 5.8514 5.55807 5.80361 5.6222 5.80361H6.24156C6.30569 5.80361 6.35769 5.8514 6.35769 5.91034V6.79981H6.47382C6.53795 6.79981 6.58995 6.8476 6.58995 6.90655V7.12002Z" fill="white"/>
</g>
</svg>
