<svg width="16" height="16" viewBox="0 0 16 16" fill="none" xmlns="http://www.w3.org/2000/svg">
<rect x="0.799988" y="0.799988" width="13.6125" height="11.2" fill="#183E4E"/>
<path d="M2.48749 3.27311C2.79815 3.27311 3.04999 3.02969 3.04999 2.72942C3.04999 2.42915 2.79815 2.18573 2.48749 2.18573C2.17683 2.18573 1.92499 2.42915 1.92499 2.72942C1.92499 3.02969 2.17683 3.27311 2.48749 3.27311Z" fill="#F1452C"/>
<path d="M3.95001 3.27311C4.26067 3.27311 4.51251 3.02969 4.51251 2.72942C4.51251 2.42915 4.26067 2.18573 3.95001 2.18573C3.63935 2.18573 3.38751 2.42915 3.38751 2.72942C3.38751 3.02969 3.63935 3.27311 3.95001 3.27311Z" fill="#FFDA44"/>
<path d="M5.41248 3.27311C5.72314 3.27311 5.97498 3.02969 5.97498 2.72942C5.97498 2.42915 5.72314 2.18573 5.41248 2.18573C5.10182 2.18573 4.84998 2.42915 4.84998 2.72942C4.84998 3.02969 5.10182 3.27311 5.41248 3.27311Z" fill="#10AC0D"/>
<path fill-rule="evenodd" clip-rule="evenodd" d="M10.7692 5.78003V10.2345H6.54314C6.44122 9.71321 6.38569 9.20726 6.35905 8.74552C6.28366 7.43869 7.35097 6.50383 8.60023 6.11287C9.30928 5.89098 10.0392 5.78003 10.7692 5.78003Z" fill="#A2DECF"/>
<path fill-rule="evenodd" clip-rule="evenodd" d="M10.7692 15.0709C10.2979 15.0709 9.82655 14.9478 9.4098 14.7015C7.63856 13.6549 6.86277 11.8692 6.54315 10.2345H10.7692V15.0709Z" fill="#4ADB89"/>
<path fill-rule="evenodd" clip-rule="evenodd" d="M14.9952 10.2345H10.7692V5.78003C11.4991 5.78003 12.2291 5.89098 12.9381 6.11287C14.1874 6.50383 15.2547 7.43869 15.1793 8.74552C15.1527 9.20726 15.0971 9.71321 14.9952 10.2345Z" fill="#4ADB89"/>
<path fill-rule="evenodd" clip-rule="evenodd" d="M14.9952 10.2345C14.6756 11.8692 13.8998 13.6549 12.1286 14.7015C11.7118 14.9478 11.2405 15.0709 10.7692 15.0709V10.2345H14.9952Z" fill="#A2DECF"/>
<path d="M14.975 10.2704C14.975 10.2704 13.0862 12.5089 10.7562 12.5089C8.42627 12.5089 6.53748 10.2704 6.53748 10.2704C6.53748 10.2704 8.42627 8.03186 10.7562 8.03186C13.0862 8.03186 14.975 10.2704 14.975 10.2704Z" fill="#4ADB89"/>
<ellipse cx="10.7562" cy="10.2704" rx="1.58203" ry="1.43904" fill="#469A77"/>
<path d="M11.8988 9.79067C12.1415 9.79067 12.3383 9.6117 12.3383 9.39094C12.3383 9.17017 12.1415 8.99121 11.8988 8.99121C11.6561 8.99121 11.4594 9.17017 11.4594 9.39094C11.4594 9.6117 11.6561 9.79067 11.8988 9.79067Z" fill="white"/>
<path d="M11.3715 10.1105C11.5171 10.1105 11.6351 10.0031 11.6351 9.87063C11.6351 9.73818 11.5171 9.6308 11.3715 9.6308C11.2258 9.6308 11.1078 9.73818 11.1078 9.87063C11.1078 10.0031 11.2258 10.1105 11.3715 10.1105Z" fill="white"/>
</svg>
