<svg width="12" height="12" viewBox="0 0 12 12" fill="none" xmlns="http://www.w3.org/2000/svg">
<mask id="mask0_3_78" style="mask-type:luminance" maskUnits="userSpaceOnUse" x="0" y="0" width="12" height="12">
<path fill-rule="evenodd" clip-rule="evenodd" d="M0 0H12V12H0V0V0Z" fill="white"/>
</mask>
<g mask="url(#mask0_3_78)">
<path fill-rule="evenodd" clip-rule="evenodd" d="M9.88637 2.67683C8.56117 2.67687 7.29444 2.11994 6.31957 1.10866L6.019 0.796875V3.46556C6.6508 3.46556 7.1648 3.97929 7.1648 4.61076C7.1648 5.24224 6.6508 5.75596 6.019 5.75596V6.13496C7.05245 6.13496 7.89321 6.97528 7.89321 8.00819V8.42538H6.019V11.2202L6.1385 11.1846C6.18796 11.1698 7.36361 10.8091 8.56649 9.61313C9.26694 8.91674 9.83559 8.07776 10.2566 7.11946C10.7777 5.93354 11.0722 4.56176 11.1319 3.04222L11.152 2.53077L10.6467 2.61425C10.3954 2.65578 10.1396 2.67683 9.88637 2.67683Z" fill="#FF8B00"/>
<path fill-rule="evenodd" clip-rule="evenodd" d="M4.14484 8.00821C4.14484 6.9753 4.9856 6.13498 6.01906 6.13498V5.75598C5.38725 5.75598 4.87326 5.24226 4.87326 4.61078C4.87326 3.97931 5.38725 3.46558 6.01906 3.46558V0.796875L5.71848 1.10868C4.74367 2.11988 3.47695 2.67678 2.15164 2.67683C1.89851 2.67683 1.64268 2.65578 1.3913 2.61425L0.886047 2.53079L0.906145 3.04224C0.965855 4.56178 1.26034 5.93356 1.7814 7.11948C2.20246 8.07778 2.77109 8.91678 3.47154 9.61315C4.67442 10.8091 5.85007 11.1698 5.89953 11.1846L6.01903 11.2203V8.4254H4.14484V8.00821Z" fill="#FF8B00"/>
<path fill-rule="evenodd" clip-rule="evenodd" d="M4.14479 8.4254H7.89321V8.00821C7.89321 6.9753 7.05245 6.13498 6.01899 6.13498C4.98553 6.13498 4.14479 6.9753 4.14479 8.00821V8.4254Z" fill="#FFE477"/>
<path fill-rule="evenodd" clip-rule="evenodd" d="M6.01909 5.75598V3.46558C5.38729 3.46558 4.87329 3.9793 4.87329 4.61078C4.87329 5.24225 5.38729 5.75598 6.01909 5.75598Z" fill="#FFE477"/>
<path fill-rule="evenodd" clip-rule="evenodd" d="M6.048 3.70587V5.99629C6.67981 5.99629 7.1938 5.48255 7.1938 4.85107C7.1938 4.2196 6.67981 3.70587 6.048 3.70587Z" fill="#FFDA44"/>
<rect x="4.10216" y="2.84109" width="1.8992" height="6.32039" fill="#FF8B00"/>
<rect x="5.37601" y="2.55884" width="2.592" height="6.26471" fill="#FF8B00"/>
</g>
<rect width="6.336" height="5.55882" transform="translate(2.88 3.26471)" fill="white" fill-opacity="0.01"/>
<path fill-rule="evenodd" clip-rule="evenodd" d="M5.80037 4.41515C5.93659 4.18955 6.15888 4.18863 6.29563 4.41515L8.17637 7.53226C8.31259 7.75786 8.18825 7.94245 7.89732 7.94245H4.19868C3.90775 7.94245 3.78288 7.75878 3.91963 7.53226L5.80037 4.41515ZM5.86133 6.67113C5.91083 6.71457 5.97798 6.73897 6.048 6.73897C6.11802 6.73897 6.18517 6.71457 6.23468 6.67113C6.28419 6.62769 6.312 6.56878 6.312 6.50735V5.34926C6.312 5.28783 6.28419 5.22892 6.23468 5.18549C6.18517 5.14205 6.11802 5.11765 6.048 5.11765C5.97798 5.11765 5.91083 5.14205 5.86133 5.18549C5.81182 5.22892 5.784 5.28783 5.784 5.34926V6.50735C5.784 6.56878 5.81182 6.62769 5.86133 6.67113ZM5.86133 7.36598C5.91083 7.40942 5.97798 7.43382 6.048 7.43382C6.11802 7.43382 6.18517 7.40942 6.23468 7.36598C6.28419 7.32255 6.312 7.26363 6.312 7.2022C6.312 7.14078 6.28419 7.08186 6.23468 7.03843C6.18517 6.99499 6.11802 6.97059 6.048 6.97059C5.97798 6.97059 5.91083 6.99499 5.86133 7.03843C5.81182 7.08186 5.784 7.14078 5.784 7.2022C5.784 7.26363 5.81182 7.32255 5.86133 7.36598Z" fill="white"/>
</svg>
