<svg width="16" height="16" viewBox="0 0 16 16" fill="none" xmlns="http://www.w3.org/2000/svg">
<mask id="mask0_3_78" style="mask-type:luminance" maskUnits="userSpaceOnUse" x="0" y="0" width="16" height="16">
<path fill-rule="evenodd" clip-rule="evenodd" d="M0 0H16V16H0V0V0Z" fill="white"/>
</mask>
<g mask="url(#mask0_3_78)">
<path fill-rule="evenodd" clip-rule="evenodd" d="M13.1818 3.5691C11.4149 3.56916 9.72593 2.82659 8.4261 1.47821L8.02533 1.0625V4.62075C8.86774 4.62075 9.55306 5.30571 9.55306 6.14768C9.55306 6.98965 8.86774 7.67462 8.02533 7.67462V8.17994C9.40327 8.17994 10.5243 9.30037 10.5243 10.6776V11.2338H8.02533V14.9603L8.18467 14.9127C8.25062 14.893 9.81814 14.4121 11.422 12.8175C12.3559 11.889 13.1141 10.7703 13.6755 9.49261C14.3703 7.91138 14.7629 6.08235 14.8425 4.05629L14.8693 3.37436L14.1957 3.48566C13.8606 3.54104 13.5195 3.5691 13.1818 3.5691Z" fill="#FF8B00"/>
<path fill-rule="evenodd" clip-rule="evenodd" d="M5.52645 10.6776C5.52645 9.30039 6.64747 8.17997 8.02541 8.17997V7.67464C7.183 7.67464 6.49767 6.98968 6.49767 6.14771C6.49767 5.30574 7.183 4.62078 8.02541 4.62078V1.0625L7.62464 1.47824C6.3249 2.82651 4.63593 3.56905 2.86886 3.5691C2.53134 3.5691 2.19024 3.54104 1.85506 3.48566L1.1814 3.37439L1.20819 4.05632C1.28781 6.08238 1.68045 7.91141 2.37521 9.49263C2.93662 10.7704 3.69479 11.889 4.62872 12.8175C6.23257 14.4121 7.80009 14.8931 7.86604 14.9128L8.02538 14.9603V11.2339H5.52645V10.6776Z" fill="#FF8B00"/>
<path fill-rule="evenodd" clip-rule="evenodd" d="M5.52638 11.2339H10.5243V10.6776C10.5243 9.30039 9.40326 8.17996 8.02531 8.17996C6.64737 8.17996 5.52638 9.30039 5.52638 10.6776V11.2339Z" fill="#FFE477"/>
<path fill-rule="evenodd" clip-rule="evenodd" d="M8.02546 7.67462V4.62076C7.18305 4.62076 6.49773 5.30572 6.49773 6.14769C6.49773 6.98966 7.18305 7.67462 8.02546 7.67462Z" fill="#FFE477"/>
<path fill-rule="evenodd" clip-rule="evenodd" d="M8.06401 4.94116V7.99506C8.90642 7.99506 9.59174 7.31006 9.59174 6.4681C9.59174 5.62613 8.90642 4.94116 8.06401 4.94116Z" fill="#FFDA44"/>
<rect x="5.46954" y="3.78812" width="2.53227" height="8.42719" fill="#FF8B00"/>
<rect x="7.16801" y="3.41177" width="3.456" height="8.35294" fill="#FF8B00"/>
</g>
<rect width="8.448" height="7.41176" transform="translate(3.84001 4.35294)" fill="white" fill-opacity="0.01"/>
<path fill-rule="evenodd" clip-rule="evenodd" d="M7.73384 5.88686C7.91547 5.58606 8.21185 5.58483 8.39419 5.88686L10.9018 10.043C11.0835 10.3438 10.9177 10.5899 10.5298 10.5899H5.59825C5.21035 10.5899 5.04385 10.345 5.22619 10.043L7.73384 5.88686ZM7.81511 8.89483C7.88112 8.95275 7.97066 8.98528 8.06401 8.98528C8.15737 8.98528 8.2469 8.95275 8.31291 8.89483C8.37893 8.83691 8.41601 8.75836 8.41601 8.67646V7.13234C8.41601 7.05044 8.37893 6.97189 8.31291 6.91397C8.2469 6.85605 8.15737 6.82352 8.06401 6.82352C7.97066 6.82352 7.88112 6.85605 7.81511 6.91397C7.7491 6.97189 7.71201 7.05044 7.71201 7.13234V8.67646C7.71201 8.75836 7.7491 8.83691 7.81511 8.89483ZM7.81511 9.8213C7.88112 9.87922 7.97066 9.91175 8.06401 9.91175C8.15737 9.91175 8.2469 9.87922 8.31291 9.8213C8.37893 9.76339 8.41601 9.68483 8.41601 9.60293C8.41601 9.52102 8.37893 9.44247 8.31291 9.38456C8.2469 9.32664 8.15737 9.29411 8.06401 9.29411C7.97066 9.29411 7.88112 9.32664 7.81511 9.38456C7.7491 9.44247 7.71201 9.52102 7.71201 9.60293C7.71201 9.68483 7.7491 9.76339 7.81511 9.8213Z" fill="white"/>
</svg>
