<svg width="125" height="136" viewBox="0 0 125 136" fill="none" xmlns="http://www.w3.org/2000/svg">
<mask id="mask0_3_78" style="mask-type:luminance" maskUnits="userSpaceOnUse" x="0" y="0" width="125" height="136">
<path fill-rule="evenodd" clip-rule="evenodd" d="M0 0H125V136H0V0Z" fill="white"/>
</mask>
<g mask="url(#mask0_3_78)">
<path fill-rule="evenodd" clip-rule="evenodd" d="M102.983 30.3373C89.1788 30.3378 75.9838 24.026 65.8288 12.5648L62.6979 9.03122V39.2763C69.2792 39.2763 74.6333 45.0985 74.6333 52.2553C74.6333 59.412 69.2792 65.2342 62.6979 65.2342V69.5295C73.463 69.5295 82.2209 79.0531 82.2209 90.7595V95.4876H62.6979V127.163L63.9427 126.758C64.4579 126.591 76.7042 122.503 89.2342 108.949C96.5306 101.056 102.454 91.5479 106.84 80.6871C112.268 67.2467 115.335 51.6999 115.957 34.4785L116.167 28.682L110.903 29.6281C108.286 30.0988 105.621 30.3373 102.983 30.3373Z" fill="#FF8B00"/>
<path fill-rule="evenodd" clip-rule="evenodd" d="M43.1755 90.7597C43.1755 79.0533 51.9334 69.5297 62.6985 69.5297V65.2344C56.1172 65.2344 50.7631 59.4122 50.7631 52.2555C50.7631 45.0988 56.1172 39.2766 62.6985 39.2766V9.03122L59.5676 12.565C49.4133 24.0253 36.2183 30.3369 22.413 30.3373C19.7762 30.3373 17.1113 30.0988 14.4927 29.6281L9.22971 28.6823L9.43906 34.4787C10.061 51.7002 13.1285 67.247 18.5563 80.6874C22.9424 91.5481 28.8656 101.057 36.162 108.949C48.692 122.503 60.9383 126.591 61.4535 126.758L62.6983 127.163V95.4878H43.1755V90.7597Z" fill="#FF8B00"/>
<path fill-rule="evenodd" clip-rule="evenodd" d="M43.1749 95.4877H82.2208V90.7596C82.2208 79.0532 73.4629 69.5296 62.6977 69.5296C51.9326 69.5296 43.1749 79.0532 43.1749 90.7596V95.4877Z" fill="#FFE477"/>
<path fill-rule="evenodd" clip-rule="evenodd" d="M62.699 65.2344V39.2766C56.1176 39.2766 50.7635 45.0988 50.7635 52.2555C50.7635 59.4122 56.1176 65.2344 62.699 65.2344Z" fill="#FFE477"/>
<path fill-rule="evenodd" clip-rule="evenodd" d="M63 42V67.9581C69.5813 67.9581 74.9354 62.1357 74.9354 54.9789C74.9354 47.8222 69.5813 42 63 42Z" fill="#FFDA44"/>
<rect x="42.7307" y="32.199" width="19.7834" height="71.6311" fill="#FF8B00"/>
<rect x="56" y="29" width="27" height="71" fill="#FF8B00"/>
</g>
<rect width="66" height="63" transform="translate(30 37)" fill="white" fill-opacity="0.01"/>
<path fill-rule="evenodd" clip-rule="evenodd" d="M60.4205 50.0384C61.8395 47.4816 64.155 47.4711 65.5795 50.0384L85.1705 85.3656C86.5895 87.9224 85.2942 90.0145 82.2637 90.0145H43.7363C40.7058 90.0145 39.405 87.9329 40.8295 85.3656L60.4205 50.0384ZM61.0555 75.6062C61.5712 76.0984 62.2707 76.375 63 76.375C63.7293 76.375 64.4288 76.0984 64.9445 75.6062C65.4603 75.1139 65.75 74.4462 65.75 73.75V60.625C65.75 59.9288 65.4603 59.2611 64.9445 58.7689C64.4288 58.2766 63.7293 58 63 58C62.2707 58 61.5712 58.2766 61.0555 58.7689C60.5397 59.2611 60.25 59.9288 60.25 60.625V73.75C60.25 74.4462 60.5397 75.1139 61.0555 75.6062ZM61.0555 83.4812C61.5712 83.9734 62.2707 84.25 63 84.25C63.7293 84.25 64.4288 83.9734 64.9445 83.4812C65.4603 82.9889 65.75 82.3212 65.75 81.625C65.75 80.9288 65.4603 80.2611 64.9445 79.7688C64.4288 79.2766 63.7293 79 63 79C62.2707 79 61.5712 79.2766 61.0555 79.7688C60.5397 80.2611 60.25 80.9288 60.25 81.625C60.25 82.3212 60.5397 82.9889 61.0555 83.4812Z" fill="white"/>
</svg>
